
<svg width="32" height="32" viewBox="0 0 32 32" fill="none" xmlns="http://www.w3.org/2000/svg">
  <rect width="32" height="32" rx="4" fill="#22D147"/>
  <circle cx="16" cy="16" r="10" fill="white"/>
  <path d="M16 9C12.134 9 9 12.134 9 16C9 19.866 12.134 23 16 23C19.866 23 23 19.866 23 16C23 12.134 19.866 9 16 9ZM16 21C13.2386 21 11 18.7614 11 16C11 13.2386 13.2386 11 16 11C18.7614 11 21 13.2386 21 16C21 18.7614 18.7614 21 16 21Z" fill="#333333"/>
  <path d="M20 16H16V12" stroke="#333333" stroke-width="1.5" stroke-linecap="round" stroke-linejoin="round"/>
  <path d="M16 16L18 18" stroke="#333333" stroke-width="1.5" stroke-linecap="round" stroke-linejoin="round"/>
</svg>
