
<svg width="100" height="100" viewBox="0 0 100 100" fill="none" xmlns="http://www.w3.org/2000/svg">
  <circle cx="50" cy="50" r="40" fill="#8FD694" />
  <path d="M50 20C33.4315 20 20 33.4315 20 50C20 66.5685 33.4315 80 50 80C66.5685 80 80 66.5685 80 50C80 33.4315 66.5685 20 50 20ZM50 75C36.1929 75 25 63.8071 25 50C25 36.1929 36.1929 25 50 25C63.8071 25 75 36.1929 75 50C75 63.8071 63.8071 75 50 75Z" fill="#1A1A1A" />
  <path d="M65 50H50V30" stroke="#1A1A1A" stroke-width="5" stroke-linecap="round" stroke-linejoin="round" />
  <path d="M65 90L40 80L65 70V90Z" fill="#8FD694" />
  <rect x="35" y="10" width="30" height="5" rx="2.5" fill="#1A1A1A" />
</svg>
