
<svg width="100" height="100" viewBox="0 0 100 100" fill="none" xmlns="http://www.w3.org/2000/svg">
  <rect width="100" height="100" rx="10" fill="#22D147"/>
  <circle cx="50" cy="50" r="30" fill="white"/>
  <path d="M50 30C38.9543 30 30 38.9543 30 50C30 61.0457 38.9543 70 50 70C61.0457 70 70 61.0457 70 50C70 38.9543 61.0457 30 50 30ZM50 66C41.1634 66 34 58.8366 34 50C34 41.1634 41.1634 34 50 34C58.8366 34 66 41.1634 66 50C66 58.8366 58.8366 66 50 66Z" fill="#333333"/>
  <path d="M64 50H50V37" stroke="#333333" stroke-width="4" stroke-linecap="round" stroke-linejoin="round"/>
  <path d="M50 50L58 58" stroke="#333333" stroke-width="4" stroke-linecap="round" stroke-linejoin="round"/>
</svg>
